<svg xmlns="http://www.w3.org/2000/svg" viewBox="0 0 1600 900" preserveAspectRatio="xMidYMid slice">
  <defs>
    <linearGradient id="sky" x1="0" y1="0" x2="0" y2="1">
      <stop offset="0%" stop-color="#8ec7f0"/>
      <stop offset="55%" stop-color="#c7e3f8"/>
      <stop offset="100%" stop-color="#f4f8fb"/>
    </linearGradient>
    <linearGradient id="stone" x1="0" y1="0" x2="1" y2="1">
      <stop offset="0%" stop-color="#e7c7a4"/>
      <stop offset="45%" stop-color="#c89f74"/>
      <stop offset="100%" stop-color="#9c7653"/>
    </linearGradient>
    <linearGradient id="dome" x1="0" y1="0" x2="0" y2="1">
      <stop offset="0%" stop-color="#f2eee8"/>
      <stop offset="100%" stop-color="#b9b0a4"/>
    </linearGradient>
    <linearGradient id="shadow" x1="0" y1="0" x2="1" y2="1">
      <stop offset="0%" stop-color="#000000" stop-opacity="0.10"/>
      <stop offset="100%" stop-color="#000000" stop-opacity="0"/>
    </linearGradient>
  </defs>

  <rect width="1600" height="900" fill="url(#sky)"/>
  <path d="M0 580 C220 520 360 530 560 560 C720 584 840 585 1000 560 C1180 532 1360 512 1600 550 L1600 900 L0 900 Z" fill="#edf3e7"/>
  <path d="M0 650 C210 612 360 610 520 634 C690 660 860 672 1030 646 C1200 618 1380 600 1600 632 L1600 900 L0 900 Z" fill="#dfe9d6"/>

  <g opacity="0.18">
    <circle cx="260" cy="180" r="90" fill="#ffffff"/>
    <circle cx="330" cy="165" r="120" fill="#ffffff"/>
    <circle cx="1250" cy="155" r="80" fill="#ffffff"/>
    <circle cx="1320" cy="135" r="110" fill="#ffffff"/>
  </g>

  <!-- Building base -->
  <g>
    <rect x="330" y="360" width="940" height="280" rx="10" fill="url(#stone)"/>
    <rect x="360" y="390" width="880" height="220" rx="8" fill="#e5c7a7" opacity="0.55"/>

    <!-- left wing -->
    <rect x="330" y="420" width="330" height="230" rx="6" fill="url(#stone)"/>
    <rect x="360" y="445" width="270" height="160" rx="4" fill="#f4dfc7" opacity="0.42"/>
    <g fill="#f8f4ef">
      <rect x="390" y="470" width="28" height="58" rx="4"/>
      <rect x="440" y="470" width="28" height="58" rx="4"/>
      <rect x="490" y="470" width="28" height="58" rx="4"/>
      <rect x="540" y="470" width="28" height="58" rx="4"/>
      <rect x="590" y="470" width="28" height="58" rx="4"/>
      <rect x="390" y="545" width="28" height="58" rx="4"/>
      <rect x="440" y="545" width="28" height="58" rx="4"/>
      <rect x="490" y="545" width="28" height="58" rx="4"/>
      <rect x="540" y="545" width="28" height="58" rx="4"/>
      <rect x="590" y="545" width="28" height="58" rx="4"/>
    </g>

    <!-- right wing -->
    <rect x="920" y="420" width="350" height="230" rx="6" fill="url(#stone)"/>
    <rect x="950" y="445" width="290" height="160" rx="4" fill="#f4dfc7" opacity="0.42"/>
    <g fill="#f8f4ef">
      <rect x="980" y="470" width="28" height="58" rx="4"/>
      <rect x="1030" y="470" width="28" height="58" rx="4"/>
      <rect x="1080" y="470" width="28" height="58" rx="4"/>
      <rect x="1130" y="470" width="28" height="58" rx="4"/>
      <rect x="1180" y="470" width="28" height="58" rx="4"/>
      <rect x="980" y="545" width="28" height="58" rx="4"/>
      <rect x="1030" y="545" width="28" height="58" rx="4"/>
      <rect x="1080" y="545" width="28" height="58" rx="4"/>
      <rect x="1130" y="545" width="28" height="58" rx="4"/>
      <rect x="1180" y="545" width="28" height="58" rx="4"/>
    </g>

    <!-- central tower -->
    <rect x="670" y="250" width="260" height="390" rx="8" fill="url(#stone)"/>
    <rect x="705" y="300" width="190" height="290" rx="6" fill="#f4dfc7" opacity="0.38"/>
    <g fill="#f8f4ef">
      <rect x="730" y="340" width="36" height="76" rx="6"/>
      <rect x="790" y="340" width="36" height="76" rx="6"/>
      <rect x="850" y="340" width="36" height="76" rx="6"/>
      <rect x="730" y="440" width="36" height="76" rx="6"/>
      <rect x="790" y="440" width="36" height="76" rx="6"/>
      <rect x="850" y="440" width="36" height="76" rx="6"/>
    </g>

    <!-- dome -->
    <ellipse cx="800" cy="220" rx="165" ry="135" fill="url(#dome)"/>
    <path d="M635 220c0-95 74-170 165-170s165 75 165 170" fill="none" stroke="#9f9487" stroke-width="18" stroke-linecap="round"/>
    <rect x="742" y="126" width="116" height="70" rx="18" fill="#d9d3cb"/>
    <circle cx="800" cy="104" r="16" fill="#9f9487"/>
    <rect x="792" y="88" width="16" height="36" rx="6" fill="#9f9487"/>
    <path d="M720 205h160v28c0 18-12 30-30 30h-100c-18 0-30-12-30-30z" fill="#c8c0b6"/>

    <!-- roof accents -->
    <g fill="#7e6a5c">
      <polygon points="500,420 560,370 620,420"/>
      <polygon points="980,420 1040,370 1100,420"/>
    </g>
    <rect x="425" y="390" width="700" height="24" rx="10" fill="#7d6a5b"/>

    <!-- flags -->
    <rect x="560" y="330" width="4" height="95" fill="#836b55"/>
    <rect x="1038" y="320" width="4" height="95" fill="#836b55"/>
    <path d="M564 330h40l-12 14 12 14h-40z" fill="#d33b3b"/>
    <path d="M1042 320h40l-12 14 12 14h-40z" fill="#d33b3b"/>

    <!-- foreground grounds -->
    <path d="M0 760 C220 705 420 720 620 764 C820 808 980 820 1170 790 C1330 765 1470 742 1600 760 L1600 900 L0 900 Z" fill="#b9c78d"/>
    <path d="M0 790 C220 748 440 765 620 800 C820 837 1000 845 1180 820 C1340 798 1490 784 1600 796 L1600 900 L0 900 Z" fill="#9fb270"/>
    <g opacity="0.4" fill="#4b5e2a">
      <circle cx="120" cy="790" r="44"/>
      <circle cx="210" cy="812" r="34"/>
      <circle cx="1380" cy="790" r="50"/>
      <circle cx="1480" cy="815" r="36"/>
      <circle cx="540" cy="820" r="28"/>
      <circle cx="980" cy="825" r="34"/>
    </g>
  </g>

  <rect x="0" y="0" width="1600" height="900" fill="url(#shadow)"/>
</svg>
